<?xml version="1.0" encoding="UTF-8" standalone="no"?>
<!-- Created with Inkscape (http://www.inkscape.org/) -->

<svg
   width="512"
   height="512"
   viewBox="0 0 512 512"
   version="1.1"
   id="svg1"
   xml:space="preserve"
   inkscape:version="1.4.2 (ebf0e940d0, 2025-05-08)"
   sodipodi:docname="cfait.svg"
   xmlns:inkscape="http://www.inkscape.org/namespaces/inkscape"
   xmlns:sodipodi="http://sodipodi.sourceforge.net/DTD/sodipodi-0.dtd"
   xmlns:xlink="http://www.w3.org/1999/xlink"
   xmlns="http://www.w3.org/2000/svg"
   xmlns:svg="http://www.w3.org/2000/svg"><sodipodi:namedview
     id="namedview1"
     pagecolor="#ffffff"
     bordercolor="#000000"
     borderopacity="0.25"
     inkscape:showpageshadow="2"
     inkscape:pageopacity="0.0"
     inkscape:pagecheckerboard="false"
     inkscape:deskcolor="#d1d1d1"
     inkscape:document-units="px"
     inkscape:zoom="0.65669781"
     inkscape:cx="103.54839"
     inkscape:cy="795.64754"
     inkscape:window-width="2033"
     inkscape:window-height="1747"
     inkscape:window-x="0"
     inkscape:window-y="0"
     inkscape:window-maximized="0"
     inkscape:current-layer="layer1"
     showgrid="false"><inkscape:grid
       id="grid66"
       units="px"
       originx="0"
       originy="0"
       spacingx="1"
       spacingy="1"
       empcolor="#0099e5"
       empopacity="0.30196078"
       color="#0099e5"
       opacity="0.14901961"
       empspacing="5"
       enabled="true"
       visible="false" /></sodipodi:namedview><defs
     id="defs1"><linearGradient
       id="swatch74"
       inkscape:swatch="solid"><stop
         style="stop-color:#008000;stop-opacity:0.88726687;"
         offset="0"
         id="stop74" /></linearGradient><linearGradient
       id="linearGradient71"
       inkscape:collect="always"><stop
         style="stop-color:#ff6600;stop-opacity:1;"
         offset="0"
         id="stop71" /><stop
         style="stop-color:#ff6600;stop-opacity:0;"
         offset="1"
         id="stop72" /></linearGradient><linearGradient
       id="linearGradient69"
       inkscape:collect="always"><stop
         style="stop-color:#ffcc00;stop-opacity:1;"
         offset="0"
         id="stop69" /><stop
         style="stop-color:#ffcc00;stop-opacity:0;"
         offset="1"
         id="stop70" /></linearGradient><clipPath
       clipPathUnits="userSpaceOnUse"
       id="clipPath51"><path
         id="path51"
         style="stroke-width:0.0999999;stroke-linecap:square;paint-order:markers fill stroke;stop-color:#000000"
         d="m 1806.4991,-753.5228 h 1637.2646 v 66.90533 H 1806.4991 Z" /></clipPath><clipPath
       clipPathUnits="userSpaceOnUse"
       id="clipPath55"><path
         id="path55"
         style="stroke-width:0.1;stroke-linecap:square;paint-order:markers fill stroke;stop-color:#000000"
         d="m 1736.6147,-745.57287 h 1589.4765 v 72.46715 H 1736.6147 Z" /></clipPath><clipPath
       clipPathUnits="userSpaceOnUse"
       id="clipPath5"><rect
         style="fill:#000000;stroke:#000000;stroke-width:0;stroke-linejoin:bevel;paint-order:stroke markers fill;stop-color:#000000"
         id="rect5-4"
         width="20"
         height="200"
         x="530"
         y="595" /></clipPath><clipPath
       clipPathUnits="userSpaceOnUse"
       id="clipPath27"><rect
         style="fill:none;stroke:#000000;stroke-width:0.999999;stroke-linecap:butt;stroke-linejoin:bevel;paint-order:stroke markers fill;stop-color:#000000"
         id="rect28-6"
         width="46.160622"
         height="39.922417"
         x="86.574379"
         y="420.06253" /></clipPath><linearGradient
       id="i"
       y2="-.2"
       gradientUnits="userSpaceOnUse"
       y1="12.17"
       x2="25.69"
       x1="25.68"><stop
         stop-color="#fff"
         offset="0"
         id="stop1" /><stop
         stop-opacity="0"
         stop-color="#fff"
         offset="1"
         id="stop2" /></linearGradient><linearGradient
       id="e"
       x1="25.4"
       xlink:href="#b"
       gradientUnits="userSpaceOnUse"
       y1="3.82"
       gradientTransform="matrix(1,0,0,0.884,-0.63,0.84)"
       x2="25.46"
       y2="9.32" /><linearGradient
       id="h"
       x1="33.4"
       xlink:href="#i"
       gradientUnits="userSpaceOnUse"
       x2="34.2"
       y1="36.92"
       y2="38.1" /><linearGradient
       id="f"
       xlink:href="#b"
       gradientUnits="userSpaceOnUse"
       y1="3.82"
       gradientTransform="matrix(0.539,0,0,0.512,10.8,-0.58)"
       x2="0"
       y2="6.48" /><linearGradient
       id="g"
       x1="26.1"
       xlink:href="#i"
       gradientUnits="userSpaceOnUse"
       x2="30.81"
       y1="26.7"
       y2="42" /><linearGradient
       id="j"
       y2="37.77"
       gradientUnits="userSpaceOnUse"
       y1="40.46"
       x2="33.66"
       x1="36"><stop
         stop-color="#7c7c7c"
         offset="0"
         id="stop3" /><stop
         stop-color="#b8b8b8"
         offset="1"
         id="stop4" /></linearGradient><linearGradient
       id="b"><stop
         stop-color="#97978a"
         offset="0"
         id="stop5" /><stop
         stop-color="#c2c2b9"
         offset=".5"
         id="stop6" /><stop
         stop-color="#7d7d6f"
         offset="1"
         id="stop7" /></linearGradient><linearGradient
       id="n"
       y2="37.88"
       gradientUnits="userSpaceOnUse"
       y1="10.45"
       x2="33.86"
       x1="6.11"><stop
         stop-color="#c68827"
         offset="0"
         id="stop8" /><stop
         stop-color="#89601f"
         offset="1"
         id="stop9" /></linearGradient><linearGradient
       id="k"
       y2="42.1"
       gradientUnits="userSpaceOnUse"
       y1="39.2"
       x2="39.1"
       x1="36.81"><stop
         offset="0"
         id="stop10" /><stop
         stop-opacity="0"
         offset="1"
         id="stop11" /></linearGradient><linearGradient
       id="m"
       y2="39.5"
       gradientUnits="userSpaceOnUse"
       y1="18.99"
       gradientTransform="matrix(1.066,0,0,0.988,-1.56,0.07)"
       x2="35.79"
       x1="22.31"><stop
         stop-color="#f0f0ef"
         offset="0"
         id="stop12" /><stop
         stop-color="#e8e8e8"
         offset=".6"
         id="stop13" /><stop
         stop-color="#fff"
         offset=".83"
         id="stop14" /><stop
         stop-color="#d8d8d3"
         offset="1"
         id="stop15" /></linearGradient><linearGradient
       id="l"
       x1="25.4"
       xlink:href="#b"
       gradientUnits="userSpaceOnUse"
       y1="3.82"
       gradientTransform="matrix(1.053,0,0,1,-1.79,0)"
       x2="25.46"
       y2="9.32" /><radialGradient
       id="d"
       gradientUnits="userSpaceOnUse"
       cy="45.3"
       cx="24.65"
       gradientTransform="matrix(1,0,0,0.111,0,40.3)"
       r="21"><stop
         stop-color="#646459"
         offset="0"
         id="stop16" /><stop
         stop-opacity="0"
         stop-color="#646459"
         offset="1"
         id="stop17" /></radialGradient><linearGradient
       inkscape:collect="always"
       xlink:href="#linearGradient69"
       id="linearGradient70"
       x1="256.58682"
       y1="-181.96346"
       x2="256.58682"
       y2="327.51422"
       gradientUnits="userSpaceOnUse" /><linearGradient
       inkscape:collect="always"
       xlink:href="#linearGradient71"
       id="linearGradient72"
       x1="256.58682"
       y1="-181.96346"
       x2="256.58682"
       y2="327.51422"
       gradientUnits="userSpaceOnUse" /></defs><g
     inkscape:label="Layer 1"
     inkscape:groupmode="layer"
     id="layer1"
     style="display:inline"><path
       d="m 230.43007,447.73081 h 3.43439 c 4.43859,7.69222 12.75342,12.85384 22.27329,12.85384 2.20926,0 4.37834,-0.28118 6.42692,-0.80337 v 0.80337 6.42692 38.56151 c 0,3.55489 -2.87203,6.42692 -6.42692,6.42692 -3.55489,0 -6.42692,-2.87203 -6.42692,-6.42692 v -28.27844 l -27.3144,21.85152 h 11.24711 c 3.55488,0 6.42692,2.87203 6.42692,6.42692 0,3.55489 -2.87204,6.42692 -6.42692,6.42692 H 204.7224 c -10.64458,0 -19.28075,-8.63617 -19.28075,-19.28075 v -44.88802 c 0,-3.23354 -2.4101,-5.98506 -5.62356,-6.38675 l -1.58664,-0.20084 c -3.53481,-0.42176 -6.02524,-3.63523 -5.60347,-7.17003 0.42176,-3.53481 3.6553,-6.02524 7.17003,-5.58338 l 1.58664,0.20083 c 9.64038,1.20505 16.89075,9.39937 16.89075,19.14017 v 17.13176 c 6.90894,-10.38349 18.7184,-17.23218 32.13459,-17.23218 z m 32.1346,5.3223 v 0 c -2.00841,0.70294 -4.1775,1.10462 -6.42692,1.10462 -5.70389,0 -10.84542,-2.49043 -14.38023,-6.42692 v 0 c -0.74311,-0.82345 -1.40589,-1.70715 -1.98833,-2.6511 -1.84774,-2.97245 -2.91219,-6.46709 -2.91219,-10.20274 v 0 -19.28075 -4.01682 -0.2611 c 0,-1.18496 0.94395,-2.12892 2.12891,-2.149 h 0.0402 c 0.66278,0 1.28539,0.32135 1.68707,0.84353 v 0.0201 l 2.57077,3.4143 5.46287,7.29054 0.96404,1.28538 h 12.85384 l 0.96404,-1.28538 5.46288,-7.29054 2.57077,-3.4143 v -0.0201 c 0.40168,-0.52218 1.02429,-0.84353 1.68707,-0.84353 h 0.0402 c 1.18496,0.0201 2.12891,0.96404 2.12891,2.149 v 0.2611 4.01682 19.28075 c 0,3.47456 -0.92387,6.74827 -2.5306,9.56005 -2.2695,3.97665 -5.9449,7.06961 -10.32324,8.61609 z m -9.64038,-18.17614 c 0,-1.7674 -1.44606,-3.21346 -3.21346,-3.21346 -1.7674,0 -3.21346,1.44606 -3.21346,3.21346 0,1.76741 1.44606,3.21346 3.21346,3.21346 1.7674,0 3.21346,-1.44605 3.21346,-3.21346 z m 9.64038,3.21346 c 1.76741,0 3.21346,-1.44605 3.21346,-3.21346 0,-1.7674 -1.44605,-3.21346 -3.21346,-3.21346 -1.7674,0 -3.21346,1.44606 -3.21346,3.21346 0,1.76741 1.44606,3.21346 3.21346,3.21346 z"
       id="path1-6"
       style="display:inline;fill-opacity:0.75146997;stroke-width:1.5000001;fill:#000000;stroke:#ffffff;stroke-opacity:1;stroke-dasharray:none;stroke-linecap:round;paint-order:stroke markers fill;stroke-linejoin:round;marker-mid:" /><g
       id="check"
       transform="matrix(9.6677949,0,0,9.6677949,54.642516,-107.69992)"
       style="display:inline;fill:#0e4d00;fill-opacity:1;stroke:#000000;stroke-width:8e-07;stroke-dasharray:none;stroke-opacity:0.606297"><path
         d="M 18,32.34 9.66,24 6.83,26.83 18,38 42,14 39.17,11.17 Z"
         id="path2-2"
         style="fill:#0e4d00;fill-opacity:1;stroke:#000000;stroke-width:8e-07;stroke-dasharray:none;stroke-opacity:0.606297" /></g><path
       sodipodi:type="star"
       style="fill:url(#linearGradient72);fill-opacity:1;stroke:#ffcc00;stroke-width:1.1e-07;stroke-linecap:butt;stroke-dasharray:none;stroke-opacity:0.606297"
       id="path66"
       inkscape:flatsided="true"
       sodipodi:sides="3"
       sodipodi:cx="256.58682"
       sodipodi:cy="-0.7613852"
       sodipodi:r1="294.14706"
       sodipodi:r2="147.07353"
       sodipodi:arg1="1.5707963"
       sodipodi:arg2="2.6179939"
       inkscape:rounded="0"
       inkscape:randomized="0"
       d="M 256.58683,293.38568 1.8479885,-147.83491 l 509.4776615,-1e-5 z"
       inkscape:transform-center-y="64.922046"
       transform="matrix(1.0012052,0,0,0.88285137,-0.896057,130.51627)"
       inkscape:transform-center-x="-1.2532309e-06" /><path
       sodipodi:type="star"
       style="display:inline;fill:url(#linearGradient70);fill-opacity:1;stroke:#ffcc00;stroke-width:1.1e-07;stroke-linecap:butt;stroke-dasharray:none;stroke-opacity:0.606297"
       id="path66-1"
       inkscape:flatsided="true"
       sodipodi:sides="3"
       sodipodi:cx="256.58682"
       sodipodi:cy="-0.7613852"
       sodipodi:r1="294.14706"
       sodipodi:r2="147.07353"
       sodipodi:arg1="1.5707963"
       sodipodi:arg2="2.6179939"
       inkscape:rounded="0"
       inkscape:randomized="0"
       d="M 256.58683,293.38568 1.8479885,-147.83491 l 509.4776615,-1e-5 z"
       inkscape:transform-center-y="64.922046"
       transform="matrix(0.87089583,0,0,0.88285137,32.53961,130.51627)"
       inkscape:transform-center-x="-1.9082339e-06" /></g></svg>
